<svg width="20" height="20" viewBox="0 0 20 20" fill="none" xmlns="http://www.w3.org/2000/svg">
<path d="M1.6665 13.1251C1.6665 13.1251 3.16262 12.5 5.83317 12.5C9.99984 12.5 13.3332 15 18.3332 15" stroke="#008080" stroke-linecap="round" stroke-linejoin="round"/>
<path d="M1.6665 17.5H18.3332" stroke="#008080" stroke-linecap="round" stroke-linejoin="round"/>
<path d="M10.4949 2.68968C8.12348 3.36973 6.58209 5.7102 6.67008 8.2292C6.68836 8.75239 6.6975 9.01398 6.92106 9.12968C7.14462 9.24537 7.37666 9.0814 7.84073 8.75346L8.87538 8.02233C9.03077 7.91252 9.21524 7.85962 9.40111 7.87156L11.8313 8.02768L13.8629 6.59202C14.0183 6.48221 14.2028 6.42931 14.3887 6.44125L15.6564 6.52269C16.2004 6.55764 16.4724 6.57511 16.6074 6.36569C16.7425 6.15628 16.6327 5.92986 16.4131 5.47702C15.3212 3.22491 12.8792 2.00589 10.4949 2.68968Z" stroke="#008080" stroke-linecap="round" stroke-linejoin="round"/>
<path d="M12.0833 7.91669L13.75 14.1667M10.2381 2.50002L10 1.66669" stroke="#008080" stroke-linecap="round" stroke-linejoin="round"/>
</svg>
