<svg width="18" height="20" viewBox="0 0 18 20" fill="none" xmlns="http://www.w3.org/2000/svg">
<path d="M14 1.66663V3.33329M4 1.66663V3.33329" stroke="black" stroke-opacity="0.6" stroke-width="1.5" stroke-linecap="round" stroke-linejoin="round"/>
<path d="M7.33333 14.1666L7.33332 11.1226C7.33332 10.9628 7.21938 10.8333 7.07882 10.8333H6.5M10.358 14.1666L11.4868 11.1242C11.5396 10.982 11.4274 10.8333 11.2672 10.8333H9.83333" stroke="black" stroke-opacity="0.6" stroke-width="1.5" stroke-linecap="round"/>
<path d="M1.0835 10.2027C1.0835 6.57161 1.0835 4.75607 2.12693 3.62803C3.17036 2.5 4.84974 2.5 8.2085 2.5H9.79183C13.1506 2.5 14.83 2.5 15.8734 3.62803C16.9168 4.75607 16.9168 6.57161 16.9168 10.2027V10.6306C16.9168 14.2617 16.9168 16.0773 15.8734 17.2053C14.83 18.3333 13.1506 18.3333 9.79183 18.3333H8.2085C4.84974 18.3333 3.17036 18.3333 2.12693 17.2053C1.0835 16.0773 1.0835 14.2617 1.0835 10.6306V10.2027Z" stroke="black" stroke-opacity="0.6" stroke-width="1.5" stroke-linecap="round" stroke-linejoin="round"/>
<path d="M4 6.66663H14" stroke="black" stroke-opacity="0.6" stroke-width="1.5" stroke-linecap="round" stroke-linejoin="round"/>
</svg>
