<svg width="20" height="20" viewBox="0 0 20 20" fill="none" xmlns="http://www.w3.org/2000/svg">
<path d="M13.3332 18.3333C12.4448 17.296 11.2779 16.6666 9.99984 16.6666C8.72179 16.6666 7.55486 17.296 6.6665 18.3333" stroke="#008080" stroke-linecap="round"/>
<path d="M10.0002 10.8333C8.94339 10.8333 7.82607 11.0161 6.95018 11.2607C6.29065 11.4448 5.76012 12.2846 5.84182 12.9663C5.87209 13.2189 6.08959 13.3333 6.31827 13.3333H13.6821C13.9107 13.3333 14.1282 13.2189 14.1585 12.9663C14.2402 12.2846 13.7097 11.4448 13.0501 11.2607C12.1743 11.0161 11.0569 10.8333 10.0002 10.8333Z" stroke="#008080" stroke-linecap="round"/>
<path d="M17.4998 8.33331C16.5794 8.33331 15.8332 9.07951 15.8332 9.99998V10.8333C15.8332 11.7538 15.087 12.5 14.1665 12.5" stroke="#008080" stroke-linecap="round" stroke-linejoin="round"/>
<path d="M2.50016 8.33331C3.42064 8.33331 4.16683 9.07951 4.16683 9.99998V10.8333C4.16683 11.7538 4.91302 12.5 5.8335 12.5" stroke="#008080" stroke-linecap="round" stroke-linejoin="round"/>
<path d="M10 13.3333V18.3333" stroke="#008080" stroke-linecap="round" stroke-linejoin="round"/>
<path d="M10.6833 8.33329H9.31705C8.14859 8.33329 7.56436 8.33329 7.14173 7.9803C6.71909 7.62731 6.5774 7.02101 6.29401 5.80841C5.84843 3.90186 5.62565 2.94859 6.09349 2.30761C6.56133 1.66663 7.4799 1.66663 9.31705 1.66663H10.6833C12.5204 1.66663 13.439 1.66663 13.9068 2.30761C14.3747 2.94859 14.1519 3.90186 13.7063 5.80841C13.4229 7.02101 13.2812 7.62731 12.8586 7.9803C12.436 8.33329 11.8517 8.33329 10.6833 8.33329Z" stroke="#008080" stroke-linecap="round" stroke-linejoin="round"/>
<path d="M10 8.33331V10.8333" stroke="#008080" stroke-linecap="round" stroke-linejoin="round"/>
</svg>
